<?xml version="1.0" encoding="UTF-8"?>
<svg version="1.0" viewBox="0 0 236.5 236.5" xmlns="http://www.w3.org/2000/svg">
    <svg width="236.4" height="236.42" overflow="visible" version="1.1">
        <svg enable-background="new 0 0 100 100" version="1.1" viewBox="0.35000002 0.85000002 99.159996 99.170006" xml:space="preserve">
            <g clip-rule="evenodd" fill-rule="evenodd">
                <path d="m69.67 20.5c-5.66-3.74-12.45-5.93-19.75-5.93-10.42 0-19.8 4.45-26.34 11.54-1.07 1.16-1.45 2.66-1.05 4.19s1.45 2.66 2.96 3.16l4.35 1.44c1.62 0.53 3.28 0.17 4.52-1 4.07-3.83 9.54-6.19 15.57-6.19 6.81 0 12.92 3 17.08 7.74 1.63 1.86 4.48 2.06 6.35 0.44 1.76-1.52 3.49-3 5.22-4.5 1.09-0.95 2.43-1.3 3.85-1.01s2.51 1.13 3.15 2.42c2.63 5.31 4.11 11.29 4.11 17.62 0 14.99-8.3 28.04-20.55 34.82-1.76 0.97-2.65 2.9-2.24 4.87 0.06 0.27 0.11 0.54 0.17 0.81 0.3 1.45 1.18 2.56 2.52 3.18s2.76 0.57 4.06-0.14c15.4-8.41 25.86-24.75 25.86-43.54 0-12.75-4.81-24.36-12.72-33.15-1.65-1.84-4.49-2-6.34-0.37-1.08 0.95-2.21 1.96-3.43 3.05-2.07 1.87-5.03 2.09-7.35 0.55zm-41.25 22.62c-0.78 2.29-1.2 4.75-1.2 7.3 0 10.27 6.82 18.95 16.18 21.76 1.63 0.49 2.78 1.74 3.13 3.41l0.93 4.49c0.32 1.55-0.13 3.03-1.26 4.13-1.13 1.11-2.61 1.53-4.15 1.19-16.01-3.59-27.97-17.88-27.97-34.98 0-0.73 0.02-1.46 0.06-2.18 0.17-2.76-1.49-5.21-4.12-6.08-1.45-0.48-2.91-0.96-4.36-1.44-2.35-0.78-3.65-3.33-2.88-5.69 6.48-19.84 25.14-34.18 47.14-34.18 9.47 0 18.33 2.66 25.86 7.27 1.26 0.77 2.01 1.98 2.14 3.45s-0.39 2.79-1.49 3.77l-0.62 0.55c-1.5 1.34-3.62 1.53-5.34 0.49-6-3.63-13.02-5.71-20.54-5.71-13.79 0-25.94 7.02-33.07 17.69-0.8 1.2-0.99 2.57-0.53 3.94s1.43 2.35 2.8 2.83c2.16 0.75 4.3 1.51 6.5 2.27 2.33 0.81 3.59 3.37 2.79 5.72zm25.94 29.61c10.38-2.03 18.27-11.41 18.27-22.3 0-1.8-0.21-3.55-0.61-5.23-0.39-1.66 0.12-3.28 1.39-4.41l3.43-3.05c1.18-1.05 2.69-1.4 4.21-0.98s2.64 1.5 3.1 3.01c1.05 3.37 1.62 6.95 1.62 10.66 0 14.05-8.08 26.21-19.85 32.09-2.48 1.24-3.77 3.89-3.21 6.61l0.93 4.49c0.5 2.43-1.06 4.82-3.49 5.34-3.3 0.69-6.72 1.06-10.23 1.06-27.38-0.02-49.57-22.22-49.57-49.59 0-0.41 0-0.82 0.01-1.23 0.04-1.48 0.71-2.73 1.91-3.58 1.21-0.85 2.61-1.06 4.02-0.6l0.78 0.26c1.91 0.63 3.13 2.36 3.1 4.37 0 0.26-0.01 0.51-0.01 0.77 0 21.3 16.64 38.37 37.19 39.68 1.44 0.09 2.72-0.44 3.67-1.52s1.32-2.42 1.05-3.84c-0.43-2.24-0.84-4.47-1.28-6.74-0.46-2.43 1.14-4.8 3.57-5.27z" fill="#09c090" />
                <path d="m49.92 64.89c7.97 0 14.46-6.5 14.46-14.46 0-7.97-6.5-14.46-14.46-14.46-7.97 0-14.46 6.5-14.46 14.46s6.5 14.46 14.46 14.46z" fill="#99e265" />
            </g>
        </svg>
    </svg>
</svg>
